# xmcd
#
# Track frame offsets:
#	150
#	10748
#	19509
#	30111
#	37071
#	51156
#	64438
#	77328
#	90339
#	97823
#	109293
#	122126
#	134365
#	145598
#	160640
#	170132
#	184533
#	195988
#	209621
#	219298
#
# Disc length: 3077 seconds
#
# Revision: 0
# Processed by: cddbd v1.5.2PL0 Copyright (c) Steve Scherf et al.
# Submitted via: audiograbber 1.83.01
#
DISCID=fd0c0314
DTITLE=Various Artist - Western-Hits Vol. 14 [CD 2)
DYEAR=1999
DGENRE=Country
TTITLE0=Anne Murray - For Baby
TTITLE1=Willie Nelson - Why Are Yoy Pickin' On Me
TTITLE2=Carl Perkins - I Can Feel It
TTITLE3=Conway Twitty - Treat Me Mean, Treat Me Cruel
TTITLE4=Danny Davis and The Nashville Brass - I Saw The Light [live]
TTITLE5=Barbara Mandrell - Lilies Grow High [live] [mono]
TTITLE6=Don Williams - I'm Getting Good At Missing You
TTITLE7=Eddy Raven - I Don't Like Planes [live]
TTITLE8=Rex Allen Senior - Highways [live]
TTITLE9=Freddy Fender - Coming Home Soon
TTITLE10=Barbara Fairchild - There Ain't No Way
TTITLE11=Ferlin Husky - Mem'ries
TTITLE12=Frankie Laine - Answer Me
TTITLE13=Tanya Tucker - What's Your Mama's Name [live]
TTITLE14=Tex Ritter - Froggy Went A Courtin'
TTITLE15=The Osmond Brothers - Takin' Country To The City [live]
TTITLE16=Tina Turner - Soul Deep
TTITLE17=Willie Nelson - Everything But You [mono]
TTITLE18=Bob Wills and His Texas Playboys - My Window Faces South [mono]
TTITLE19=Carl Perkins - Whole Lotta Shakin' Goin' On
EXTD=
EXTT0=
EXTT1=
EXTT2=
EXTT3=
EXTT4=
EXTT5=
EXTT6=
EXTT7=
EXTT8=
EXTT9=
EXTT10=
EXTT11=
EXTT12=
EXTT13=
EXTT14=
EXTT15=
EXTT16=
EXTT17=
EXTT18=
EXTT19=
PLAYORDER=
